<?xml version="1.0" encoding="UTF-8" standalone="yes"?>
    <svg xmlns="http://www.w3.org/2000/svg" xmlns:xlink="http://www.w3.org/1999/xlink" height="1119px" style="width:552px;height:1119px;" version="1.1" viewBox="0 0 552 1119" width="552px">
        <defs>
            <filter height="300%" id="f1" width="300%" x="-1" y="-1">
                <feGaussianBlur result="blurOut" stdDeviation="2.0" />
                <feColorMatrix in="blurOut" result="blurOut2" type="matrix" values="0 0 0 0 0 0 0 0 0 0 0 0 0 0 0 0 0 0 .4 0" />
                <feOffset dx="4.0" dy="4.0" in="blurOut2" result="blurOut3" />
                <feBlend in="SourceGraphic" in2="blurOut3" mode="normal" />
            </filter>
        </defs>
        <g>
            <text fill="#000000" font-family="sans-serif" font-size="14" font-weight="bold" lengthAdjust="spacingAndGlyphs" textLength="185" x="182.75" y="22.9951">Controller Management</text>
            <rect fill="#FFFFFF" filter="url(#f1)" height="849.3203" style="stroke: #A80036; stroke-width: 1.0;" width="10" x="45.5" y="222.9922" />
            <rect fill="#FFFFFF" filter="url(#f1)" height="778.0547" style="stroke: #A80036; stroke-width: 1.0;" width="10" x="129" y="294.2578" />
            <rect fill="#FFFFFF" filter="url(#f1)" height="503.9922" style="stroke: #A80036; stroke-width: 1.0;" width="10" x="428" y="568.3203" />
            <line style="stroke: #A80036; stroke-width: 1.0; stroke-dasharray: 5.0,5.0;" x1="50" x2="50" y1="68.5938" y2="1081.3125" />
            <line style="stroke: #A80036; stroke-width: 1.0; stroke-dasharray: 5.0,5.0;" x1="134" x2="134" y1="68.5938" y2="1081.3125" />
            <line style="stroke: #A80036; stroke-width: 1.0; stroke-dasharray: 5.0,5.0;" x1="280.5" x2="280.5" y1="68.5938" y2="1081.3125" />
            <line style="stroke: #A80036; stroke-width: 1.0; stroke-dasharray: 5.0,5.0;" x1="359.5" x2="359.5" y1="68.5938" y2="1081.3125" />
            <line style="stroke: #A80036; stroke-width: 1.0; stroke-dasharray: 5.0,5.0;" x1="432.5" x2="432.5" y1="68.5938" y2="1081.3125" />
            <line style="stroke: #A80036; stroke-width: 1.0; stroke-dasharray: 5.0,5.0;" x1="515.5" x2="515.5" y1="68.5938" y2="1081.3125" />
            <rect fill="#FEFECE" filter="url(#f1)" height="30.2969" style="stroke: #A80036; stroke-width: 1.5;" width="81" x="8" y="33.2969" />
            <text fill="#000000" font-family="sans-serif" font-size="14" lengthAdjust="spacingAndGlyphs" textLength="67" x="15" y="53.292">Controller</text>
            <rect fill="#FEFECE" filter="url(#f1)" height="30.2969" style="stroke: #A80036; stroke-width: 1.5;" width="81" x="8" y="1080.3125" />
            <text fill="#000000" font-family="sans-serif" font-size="14" lengthAdjust="spacingAndGlyphs" textLength="67" x="15" y="1100.3076">Controller</text>
            <rect fill="#FEFECE" filter="url(#f1)" height="30.2969" style="stroke: #A80036; stroke-width: 1.5;" width="58" x="103" y="33.2969" />
            <text fill="#000000" font-family="sans-serif" font-size="14" lengthAdjust="spacingAndGlyphs" textLength="44" x="110" y="53.292">Check</text>
            <rect fill="#FEFECE" filter="url(#f1)" height="30.2969" style="stroke: #A80036; stroke-width: 1.5;" width="58" x="103" y="1080.3125" />
            <text fill="#000000" font-family="sans-serif" font-size="14" lengthAdjust="spacingAndGlyphs" textLength="44" x="110" y="1100.3076">Check</text>
            <rect fill="#FEFECE" filter="url(#f1)" height="30.2969" style="stroke: #A80036; stroke-width: 1.5;" width="67" x="245.5" y="33.2969" />
            <text fill="#000000" font-family="sans-serif" font-size="14" lengthAdjust="spacingAndGlyphs" textLength="53" x="252.5" y="53.292">storage</text>
            <rect fill="#FEFECE" filter="url(#f1)" height="30.2969" style="stroke: #A80036; stroke-width: 1.5;" width="67" x="245.5" y="1080.3125" />
            <text fill="#000000" font-family="sans-serif" font-size="14" lengthAdjust="spacingAndGlyphs" textLength="53" x="252.5" y="1100.3076">storage</text>
            <rect fill="#FEFECE" filter="url(#f1)" height="30.2969" style="stroke: #A80036; stroke-width: 1.5;" width="62" x="326.5" y="33.2969" />
            <text fill="#000000" font-family="sans-serif" font-size="14" lengthAdjust="spacingAndGlyphs" textLength="48" x="333.5" y="53.292">sensor</text>
            <rect fill="#FEFECE" filter="url(#f1)" height="30.2969" style="stroke: #A80036; stroke-width: 1.5;" width="62" x="326.5" y="1080.3125" />
            <text fill="#000000" font-family="sans-serif" font-size="14" lengthAdjust="spacingAndGlyphs" textLength="48" x="333.5" y="1100.3076">sensor</text>
            <rect fill="#FEFECE" filter="url(#f1)" height="30.2969" style="stroke: #A80036; stroke-width: 1.5;" width="57" x="402.5" y="33.2969" />
            <text fill="#000000" font-family="sans-serif" font-size="14" lengthAdjust="spacingAndGlyphs" textLength="43" x="409.5" y="53.292">Action</text>
            <rect fill="#FEFECE" filter="url(#f1)" height="30.2969" style="stroke: #A80036; stroke-width: 1.5;" width="57" x="402.5" y="1080.3125" />
            <text fill="#000000" font-family="sans-serif" font-size="14" lengthAdjust="spacingAndGlyphs" textLength="43" x="409.5" y="1100.3076">Action</text>
            <rect fill="#FEFECE" filter="url(#f1)" height="30.2969" style="stroke: #A80036; stroke-width: 1.5;" width="49" x="489.5" y="33.2969" />
            <text fill="#000000" font-family="sans-serif" font-size="14" lengthAdjust="spacingAndGlyphs" textLength="35" x="496.5" y="53.292">actor</text>
            <rect fill="#FEFECE" filter="url(#f1)" height="30.2969" style="stroke: #A80036; stroke-width: 1.5;" width="49" x="489.5" y="1080.3125" />
            <text fill="#000000" font-family="sans-serif" font-size="14" lengthAdjust="spacingAndGlyphs" textLength="35" x="496.5" y="1100.3076">actor</text>
            <rect fill="#FFFFFF" filter="url(#f1)" height="849.3203" style="stroke: #A80036; stroke-width: 1.0;" width="10" x="45.5" y="222.9922" />
            <rect fill="#FFFFFF" filter="url(#f1)" height="778.0547" style="stroke: #A80036; stroke-width: 1.0;" width="10" x="129" y="294.2578" />
            <rect fill="#FFFFFF" filter="url(#f1)" height="503.9922" style="stroke: #A80036; stroke-width: 1.0;" width="10" x="428" y="568.3203" />
            <rect fill="#EEEEEE" filter="url(#f1)" height="3" style="stroke: #EEEEEE; stroke-width: 1.0;" width="544.5" x="3" y="99.1602" />
            <line style="stroke: #000000; stroke-width: 1.0;" x1="3" x2="547.5" y1="99.1602" y2="99.1602" />
            <line style="stroke: #000000; stroke-width: 1.0;" x1="3" x2="547.5" y1="102.1602" y2="102.1602" />
            <rect fill="#EEEEEE" filter="url(#f1)" height="23.1328" style="stroke: #000000; stroke-width: 2.0;" width="152" x="199.25" y="88.5938" />
            <text fill="#000000" font-family="sans-serif" font-size="13" font-weight="bold" lengthAdjust="spacingAndGlyphs" textLength="133" x="205.25" y="104.6606">Class Initialization</text>
            <polygon fill="#A80036" points="61.5,138.7266,51.5,142.7266,61.5,146.7266,57.5,142.7266" style="stroke: #A80036; stroke-width: 1.0;" />
            <polygon fill="#A80036" points="122,138.7266,132,142.7266,122,146.7266,126,142.7266" style="stroke: #A80036; stroke-width: 1.0;" />
            <line style="stroke: #A80036; stroke-width: 1.0;" x1="55.5" x2="128" y1="142.7266" y2="142.7266" />
            <text fill="#000000" font-family="sans-serif" font-size="13" lengthAdjust="spacingAndGlyphs" textLength="19" x="67.5" y="137.7935">init</text>
            <rect fill="#EEEEEE" filter="url(#f1)" height="3" style="stroke: #EEEEEE; stroke-width: 1.0;" width="544.5" x="3" y="171.4258" />
            <line style="stroke: #000000; stroke-width: 1.0;" x1="3" x2="547.5" y1="171.4258" y2="171.4258" />
            <line style="stroke: #000000; stroke-width: 1.0;" x1="3" x2="547.5" y1="174.4258" y2="174.4258" />
            <rect fill="#EEEEEE" filter="url(#f1)" height="23.1328" style="stroke: #000000; stroke-width: 2.0;" width="175" x="187.75" y="160.8594" />
            <text fill="#000000" font-family="sans-serif" font-size="13" font-weight="bold" lengthAdjust="spacingAndGlyphs" textLength="156" x="193.75" y="176.9263">Instance Initialization</text>
            <line style="stroke: #A80036; stroke-width: 1.0;" x1="50.5" x2="97.5" y1="210.125" y2="210.125" />
            <line style="stroke: #A80036; stroke-width: 1.0;" x1="97.5" x2="97.5" y1="210.125" y2="223.125" />
            <line style="stroke: #A80036; stroke-width: 1.0;" x1="56.5" x2="97.5" y1="223.125" y2="223.125" />
            <polygon fill="#A80036" points="66.5,219.125,56.5,223.125,66.5,227.125,62.5,223.125" style="stroke: #A80036; stroke-width: 1.0;" />
            <text fill="#000000" font-family="sans-serif" font-size="13" lengthAdjust="spacingAndGlyphs" textLength="25" x="62.5" y="205.0591">new</text>
            <polygon fill="#A80036" points="122,253.125,132,257.125,122,261.125,126,257.125" style="stroke: #A80036; stroke-width: 1.0;" />
            <line style="stroke: #A80036; stroke-width: 1.0;" x1="55.5" x2="128" y1="257.125" y2="257.125" />
            <text fill="#000000" font-family="sans-serif" font-size="13" lengthAdjust="spacingAndGlyphs" textLength="41" x="62.5" y="252.1919">create</text>
            <line style="stroke: #A80036; stroke-width: 1.0;" x1="134" x2="181" y1="281.3906" y2="281.3906" />
            <line style="stroke: #A80036; stroke-width: 1.0;" x1="181" x2="181" y1="281.3906" y2="294.3906" />
            <line style="stroke: #A80036; stroke-width: 1.0;" x1="140" x2="181" y1="294.3906" y2="294.3906" />
            <polygon fill="#A80036" points="150,290.3906,140,294.3906,150,298.3906,146,294.3906" style="stroke: #A80036; stroke-width: 1.0;" />
            <text fill="#000000" font-family="sans-serif" font-size="13" lengthAdjust="spacingAndGlyphs" textLength="25" x="146" y="276.3247">new</text>
            <polygon fill="#A80036" points="66.5,309.3906,56.5,313.3906,66.5,317.3906,62.5,313.3906" style="stroke: #A80036; stroke-width: 1.0;" />
            <line style="stroke: #A80036; stroke-width: 1.0;" x1="60.5" x2="128" y1="313.3906" y2="313.3906" />
            <polygon fill="#A80036" points="66.5,338.3906,56.5,342.3906,66.5,346.3906,62.5,342.3906" style="stroke: #A80036; stroke-width: 1.0;" />
            <polygon fill="#A80036" points="269,338.3906,279,342.3906,269,346.3906,273,342.3906" style="stroke: #A80036; stroke-width: 1.0;" />
            <line style="stroke: #A80036; stroke-width: 1.0;" x1="60.5" x2="275" y1="342.3906" y2="342.3906" />
            <text fill="#000000" font-family="sans-serif" font-size="13" lengthAdjust="spacingAndGlyphs" textLength="88" x="72.5" y="337.4575">add controller</text>
            <polygon fill="#A80036" points="117,367.5234,127,371.5234,117,375.5234,121,371.5234" style="stroke: #A80036; stroke-width: 1.0;" />
            <line style="stroke: #A80036; stroke-width: 1.0;" x1="55.5" x2="123" y1="371.5234" y2="371.5234" />
            <text fill="#000000" font-family="sans-serif" font-size="13" lengthAdjust="spacingAndGlyphs" textLength="19" x="62.5" y="366.5903">init</text>
            <polygon fill="#A80036" points="150,396.6563,140,400.6563,150,404.6563,146,400.6563" style="stroke: #A80036; stroke-width: 1.0;" />
            <polygon fill="#A80036" points="347.5,396.6563,357.5,400.6563,347.5,404.6563,351.5,400.6563" style="stroke: #A80036; stroke-width: 1.0;" />
            <line style="stroke: #A80036; stroke-width: 1.0;" x1="144" x2="353.5" y1="400.6563" y2="400.6563" />
            <text fill="#000000" font-family="sans-serif" font-size="13" lengthAdjust="spacingAndGlyphs" textLength="90" x="156" y="395.7231">get + validate</text>
            <polygon fill="#A80036" points="150,425.7891,140,429.7891,150,433.7891,146,429.7891" style="stroke: #A80036; stroke-width: 1.0;" />
            <polygon fill="#A80036" points="347.5,425.7891,357.5,429.7891,347.5,433.7891,351.5,429.7891" style="stroke: #A80036; stroke-width: 1.0;" />
            <line style="stroke: #A80036; stroke-width: 1.0;" x1="144" x2="353.5" y1="429.7891" y2="429.7891" />
            <text fill="#000000" font-family="sans-serif" font-size="13" lengthAdjust="spacingAndGlyphs" textLength="19" x="156" y="424.856">init</text>
            <polygon fill="#A80036" points="150,454.9219,140,458.9219,150,462.9219,146,458.9219" style="stroke: #A80036; stroke-width: 1.0;" />
            <polygon fill="#A80036" points="269,454.9219,279,458.9219,269,462.9219,273,458.9219" style="stroke: #A80036; stroke-width: 1.0;" />
            <line style="stroke: #A80036; stroke-width: 1.0;" x1="144" x2="275" y1="458.9219" y2="458.9219" />
            <text fill="#000000" font-family="sans-serif" font-size="13" lengthAdjust="spacingAndGlyphs" textLength="65" x="156" y="453.9888">add check</text>
            <polygon fill="#A80036" points="66.5,469.0547,56.5,473.0547,66.5,477.0547,62.5,473.0547" style="stroke: #A80036; stroke-width: 1.0;" />
            <line style="stroke: #A80036; stroke-width: 1.0;" x1="60.5" x2="128" y1="473.0547" y2="473.0547" />
            <polygon fill="#A80036" points="421,498.0547,431,502.0547,421,506.0547,425,502.0547" style="stroke: #A80036; stroke-width: 1.0;" />
            <line style="stroke: #A80036; stroke-width: 1.0;" x1="55.5" x2="427" y1="502.0547" y2="502.0547" />
            <text fill="#000000" font-family="sans-serif" font-size="13" lengthAdjust="spacingAndGlyphs" textLength="19" x="62.5" y="497.1216">init</text>
            <polygon fill="#A80036" points="444,527.1875,434,531.1875,444,535.1875,440,531.1875" style="stroke: #A80036; stroke-width: 1.0;" />
            <polygon fill="#A80036" points="504,527.1875,514,531.1875,504,535.1875,508,531.1875" style="stroke: #A80036; stroke-width: 1.0;" />
            <line style="stroke: #A80036; stroke-width: 1.0;" x1="438" x2="510" y1="531.1875" y2="531.1875" />
            <text fill="#000000" font-family="sans-serif" font-size="13" lengthAdjust="spacingAndGlyphs" textLength="18" x="450" y="526.2544">list</text>
            <line style="stroke: #A80036; stroke-width: 1.0;" x1="433" x2="480" y1="555.4531" y2="555.4531" />
            <line style="stroke: #A80036; stroke-width: 1.0;" x1="480" x2="480" y1="555.4531" y2="568.4531" />
            <line style="stroke: #A80036; stroke-width: 1.0;" x1="439" x2="480" y1="568.4531" y2="568.4531" />
            <polygon fill="#A80036" points="449,564.4531,439,568.4531,449,572.4531,445,568.4531" style="stroke: #A80036; stroke-width: 1.0;" />
            <text fill="#000000" font-family="sans-serif" font-size="13" lengthAdjust="spacingAndGlyphs" textLength="25" x="445" y="550.3872">new</text>
            <polygon fill="#A80036" points="66.5,583.4531,56.5,587.4531,66.5,591.4531,62.5,587.4531" style="stroke: #A80036; stroke-width: 1.0;" />
            <line style="stroke: #A80036; stroke-width: 1.0;" x1="60.5" x2="427" y1="587.4531" y2="587.4531" />
            <rect fill="#EEEEEE" filter="url(#f1)" height="3" style="stroke: #EEEEEE; stroke-width: 1.0;" width="544.5" x="3" y="616.0195" />
            <line style="stroke: #000000; stroke-width: 1.0;" x1="3" x2="547.5" y1="616.0195" y2="616.0195" />
            <line style="stroke: #000000; stroke-width: 1.0;" x1="3" x2="547.5" y1="619.0195" y2="619.0195" />
            <rect fill="#EEEEEE" filter="url(#f1)" height="23.1328" style="stroke: #000000; stroke-width: 2.0;" width="124" x="213.25" y="605.4531" />
            <text fill="#000000" font-family="sans-serif" font-size="13" font-weight="bold" lengthAdjust="spacingAndGlyphs" textLength="105" x="219.25" y="621.52">Run Controller</text>
            <polygon fill="#A80036" points="117,655.5859,127,659.5859,117,663.5859,121,659.5859" style="stroke: #A80036; stroke-width: 1.0;" />
            <line style="stroke: #A80036; stroke-width: 1.0;" x1="55.5" x2="123" y1="659.5859" y2="659.5859" />
            <text fill="#000000" font-family="sans-serif" font-size="13" lengthAdjust="spacingAndGlyphs" textLength="24" x="62.5" y="654.6528">Run</text>
            <line style="stroke: #A80036; stroke-width: 1.0; stroke-dasharray: 2.0,2.0;" x1="139" x2="181" y1="688.8516" y2="688.8516" />
            <line style="stroke: #A80036; stroke-width: 1.0; stroke-dasharray: 2.0,2.0;" x1="181" x2="181" y1="688.8516" y2="701.8516" />
            <line style="stroke: #A80036; stroke-width: 1.0; stroke-dasharray: 2.0,2.0;" x1="140" x2="181" y1="701.8516" y2="701.8516" />
            <polygon fill="#A80036" points="150,697.8516,140,701.8516,150,705.8516,146,701.8516" style="stroke: #A80036; stroke-width: 1.0;" />
            <text fill="#000000" font-family="sans-serif" font-size="13" lengthAdjust="spacingAndGlyphs" textLength="91" x="146" y="683.7856">stop if running</text>
            <polygon fill="#A80036" points="150,726.8516,140,730.8516,150,734.8516,146,730.8516" style="stroke: #A80036; stroke-width: 1.0;" />
            <polygon fill="#A80036" points="347.5,726.8516,357.5,730.8516,347.5,734.8516,351.5,730.8516" style="stroke: #A80036; stroke-width: 1.0;" />
            <line style="stroke: #A80036; stroke-width: 1.0; stroke-dasharray: 2.0,2.0;" x1="144" x2="353.5" y1="730.8516" y2="730.8516" />
            <text fill="#000000" font-family="sans-serif" font-size="13" lengthAdjust="spacingAndGlyphs" textLength="107" x="156" y="725.9185">prerun (optional)</text>
            <polygon fill="#A80036" points="150,755.9844,140,759.9844,150,763.9844,146,759.9844" style="stroke: #A80036; stroke-width: 1.0;" />
            <polygon fill="#A80036" points="347.5,755.9844,357.5,759.9844,347.5,763.9844,351.5,759.9844" style="stroke: #A80036; stroke-width: 1.0;" />
            <line style="stroke: #A80036; stroke-width: 1.0;" x1="144" x2="353.5" y1="759.9844" y2="759.9844" />
            <text fill="#000000" font-family="sans-serif" font-size="13" lengthAdjust="spacingAndGlyphs" textLength="21" x="156" y="755.0513">run</text>
            <polygon fill="#A80036" points="150,785.1172,140,789.1172,150,793.1172,146,789.1172" style="stroke: #A80036; stroke-width: 1.0;" />
            <polygon fill="#A80036" points="347.5,785.1172,357.5,789.1172,347.5,793.1172,351.5,789.1172" style="stroke: #A80036; stroke-width: 1.0;" />
            <line style="stroke: #A80036; stroke-width: 1.0;" x1="144" x2="353.5" y1="789.1172" y2="789.1172" />
            <text fill="#000000" font-family="sans-serif" font-size="13" lengthAdjust="spacingAndGlyphs" textLength="25" x="156" y="784.1841">calc</text>
            <polygon fill="#A80036" points="269,814.25,279,818.25,269,822.25,273,818.25" style="stroke: #A80036; stroke-width: 1.0;" />
            <line style="stroke: #A80036; stroke-width: 1.0;" x1="139" x2="275" y1="818.25" y2="818.25" />
            <text fill="#000000" font-family="sans-serif" font-size="13" lengthAdjust="spacingAndGlyphs" textLength="118" x="146" y="813.3169">add sensor results</text>
            <polygon fill="#A80036" points="66.5,828.3828,56.5,832.3828,66.5,836.3828,62.5,832.3828" style="stroke: #A80036; stroke-width: 1.0;" />
            <line style="stroke: #A80036; stroke-width: 1.0;" x1="60.5" x2="128" y1="832.3828" y2="832.3828" />
            <polygon fill="#A80036" points="66.5,857.3828,56.5,861.3828,66.5,865.3828,62.5,861.3828" style="stroke: #A80036; stroke-width: 1.0;" />
            <polygon fill="#A80036" points="269,857.3828,279,861.3828,269,865.3828,273,861.3828" style="stroke: #A80036; stroke-width: 1.0;" />
            <line style="stroke: #A80036; stroke-width: 1.0;" x1="60.5" x2="275" y1="861.3828" y2="861.3828" />
            <text fill="#000000" font-family="sans-serif" font-size="13" lengthAdjust="spacingAndGlyphs" textLength="132" x="72.5" y="856.4497">add controller status</text>
            <line style="stroke: #A80036; stroke-width: 1.0;" x1="55.5" x2="97.5" y1="890.6484" y2="890.6484" />
            <line style="stroke: #A80036; stroke-width: 1.0;" x1="97.5" x2="97.5" y1="890.6484" y2="903.6484" />
            <line style="stroke: #A80036; stroke-width: 1.0;" x1="56.5" x2="97.5" y1="903.6484" y2="903.6484" />
            <polygon fill="#A80036" points="66.5,899.6484,56.5,903.6484,66.5,907.6484,62.5,903.6484" style="stroke: #A80036; stroke-width: 1.0;" />
            <text fill="#000000" font-family="sans-serif" font-size="13" lengthAdjust="spacingAndGlyphs" textLength="39" x="62.5" y="885.5825">report</text>
            <polygon fill="#A80036" points="66.5,928.6484,56.5,932.6484,66.5,936.6484,62.5,932.6484" style="stroke: #A80036; stroke-width: 1.0;" />
            <polygon fill="#A80036" points="117,928.6484,127,932.6484,117,936.6484,121,932.6484" style="stroke: #A80036; stroke-width: 1.0;" />
            <line style="stroke: #A80036; stroke-width: 1.0;" x1="60.5" x2="123" y1="932.6484" y2="932.6484" />
            <text fill="#000000" font-family="sans-serif" font-size="13" lengthAdjust="spacingAndGlyphs" textLength="39" x="72.5" y="927.7153">report</text>
            <polygon fill="#A80036" points="416,957.7813,426,961.7813,416,965.7813,420,961.7813" style="stroke: #A80036; stroke-width: 1.0;" />
            <line style="stroke: #A80036; stroke-width: 1.0;" x1="55.5" x2="422" y1="961.7813" y2="961.7813" />
            <text fill="#000000" font-family="sans-serif" font-size="13" lengthAdjust="spacingAndGlyphs" textLength="21" x="62.5" y="956.8481">run</text>
            <polygon fill="#A80036" points="449,986.9141,439,990.9141,449,994.9141,445,990.9141" style="stroke: #A80036; stroke-width: 1.0;" />
            <polygon fill="#A80036" points="504,986.9141,514,990.9141,504,994.9141,508,990.9141" style="stroke: #A80036; stroke-width: 1.0;" />
            <line style="stroke: #A80036; stroke-width: 1.0; stroke-dasharray: 2.0,2.0;" x1="443" x2="510" y1="990.9141" y2="990.9141" />
            <text fill="#000000" font-family="sans-serif" font-size="13" lengthAdjust="spacingAndGlyphs" textLength="54" x="455" y="985.981">init once</text>
            <polygon fill="#A80036" points="449,1016.0469,439,1020.0469,449,1024.0469,445,1020.0469" style="stroke: #A80036; stroke-width: 1.0;" />
            <polygon fill="#A80036" points="504,1016.0469,514,1020.0469,504,1024.0469,508,1020.0469" style="stroke: #A80036; stroke-width: 1.0;" />
            <line style="stroke: #A80036; stroke-width: 1.0; stroke-dasharray: 2.0,2.0;" x1="443" x2="510" y1="1020.0469" y2="1020.0469" />
            <text fill="#000000" font-family="sans-serif" font-size="13" lengthAdjust="spacingAndGlyphs" textLength="21" x="455" y="1015.1138">run</text>
            <polygon fill="#A80036" points="292,1045.1797,282,1049.1797,292,1053.1797,288,1049.1797" style="stroke: #A80036; stroke-width: 1.0;" />
            <polygon fill="#A80036" points="416,1045.1797,426,1049.1797,416,1053.1797,420,1049.1797" style="stroke: #A80036; stroke-width: 1.0;" />
            <line style="stroke: #A80036; stroke-width: 1.0;" x1="286" x2="422" y1="1049.1797" y2="1049.1797" />
            <text fill="#000000" font-family="sans-serif" font-size="13" lengthAdjust="spacingAndGlyphs" textLength="114" x="298" y="1044.2466">add action results</text>
            <polygon fill="#A80036" points="66.5,1059.3125,56.5,1063.3125,66.5,1067.3125,62.5,1063.3125" style="stroke: #A80036; stroke-width: 1.0;" />
            <line style="stroke: #A80036; stroke-width: 1.0;" x1="60.5" x2="427" y1="1063.3125" y2="1063.3125" />
        </g>
    </svg>