<?xml version="1.0" encoding="UTF-8" standalone="yes"?>
    <svg xmlns="http://www.w3.org/2000/svg" xmlns:xlink="http://www.w3.org/1999/xlink" height="517px" style="width:1159px;height:517px;" version="1.1" viewBox="0 0 1159 517" width="1159px">
        <defs>
            <filter height="300%" id="f1" width="300%" x="-1" y="-1">
                <feGaussianBlur result="blurOut" stdDeviation="2.0" />
                <feColorMatrix in="blurOut" result="blurOut2" type="matrix" values="0 0 0 0 0 0 0 0 0 0 0 0 0 0 0 0 0 0 .4 0" />
                <feOffset dx="4.0" dy="4.0" in="blurOut2" result="blurOut3" />
                <feBlend in="SourceGraphic" in2="blurOut3" mode="normal" />
            </filter>
        </defs>
        <g>
            <text fill="#000000" font-family="sans-serif" font-size="18" lengthAdjust="spacingAndGlyphs" textLength="119" x="524.5" y="16.708">Monitor Parts</text>
            <polygon fill="#FFFFFF" filter="url(#f1)" points="22,54.9531,32,44.9531,766,44.9531,766,420.9531,756,430.9531,22,430.9531,22,54.9531" style="stroke: #000000; stroke-width: 2.0;" />
            <line style="stroke: #000000; stroke-width: 2.0;" x1="756" x2="765" y1="54.9531" y2="45.9531" />
            <line style="stroke: #000000; stroke-width: 2.0;" x1="22" x2="756" y1="54.9531" y2="54.9531" />
            <line style="stroke: #000000; stroke-width: 2.0;" x1="756" x2="756" y1="54.9531" y2="430.9531" />
            <text fill="#000000" font-family="sans-serif" font-size="14" font-weight="bold" lengthAdjust="spacingAndGlyphs" textLength="60" x="360" y="70.9482">Monitor</text>
            <rect fill="#FFFFFF" filter="url(#f1)" height="104" style="stroke: #000000; stroke-width: 2.0;" width="223" x="433" y="145.9531" />
            <path d="M530,146.9531 L530,155.25 L520,165.25 L433,165.25 " fill="#FFFFFF" style="stroke: #000000; stroke-width: 2.0;" />
            <text fill="#000000" font-family="sans-serif" font-size="14" font-weight="bold" lengthAdjust="spacingAndGlyphs" textLength="87" x="436" y="159.9482">Webserver</text>
            <polygon fill="#FFFFFF" filter="url(#f1)" points="356,294.9531,436,294.9531,443,317.25,640,317.25,640,398.9531,356,398.9531,356,294.9531" style="stroke: #000000; stroke-width: 2.0;" />
            <line style="stroke: #000000; stroke-width: 2.0;" x1="356" x2="443" y1="317.25" y2="317.25" />
            <text fill="#000000" font-family="sans-serif" font-size="14" font-weight="bold" lengthAdjust="spacingAndGlyphs" textLength="74" x="360" y="309.9482">local files</text>
            <rect fill="#FFFFFF" filter="url(#f1)" height="253" style="stroke: #000000; stroke-width: 2.0;" width="262" x="54" y="145.9531" />
            <path d="M105,146.9531 L105,155.25 L95,165.25 L54,165.25 " fill="#FFFFFF" style="stroke: #000000; stroke-width: 2.0;" />
            <text fill="#000000" font-family="sans-serif" font-size="14" font-weight="bold" lengthAdjust="spacingAndGlyphs" textLength="41" x="57" y="159.9482">Parts</text>
            <polygon fill="#FFFFFF" filter="url(#f1)" points="798,299.9531,808,289.9531,1037,289.9531,1037,502.9531,1027,512.9531,798,512.9531,798,299.9531" style="stroke: #000000; stroke-width: 2.0;" />
            <line style="stroke: #000000; stroke-width: 2.0;" x1="1027" x2="1036" y1="299.9531" y2="290.9531" />
            <line style="stroke: #000000; stroke-width: 2.0;" x1="798" x2="1027" y1="299.9531" y2="299.9531" />
            <line style="stroke: #000000; stroke-width: 2.0;" x1="1027" x2="1027" y1="299.9531" y2="512.9531" />
            <text fill="#000000" font-family="sans-serif" font-size="14" font-weight="bold" lengthAdjust="spacingAndGlyphs" textLength="101" x="863" y="315.9482">Testsystems</text>
            <rect fill="#FEFECE" filter="url(#f1)" height="36.2969" style="stroke: #A80036; stroke-width: 1.5;" width="52" x="348" y="85.9531" />
            <rect fill="#FEFECE" height="5" style="stroke: #A80036; stroke-width: 1.5;" width="10" x="343" y="90.9531" />
            <rect fill="#FEFECE" height="5" style="stroke: #A80036; stroke-width: 1.5;" width="10" x="343" y="112.25" />
            <text fill="#000000" font-family="sans-serif" font-size="14" lengthAdjust="spacingAndGlyphs" textLength="32" x="358" y="108.9482">Start</text>
            <path d="M664,346.4531 C664,336.4531 707,336.4531 707,336.4531 C707,336.4531 750,336.4531 750,346.4531 L750,367.75 C750,377.75 707,377.75 707,377.75 C707,377.75 664,377.75 664,367.75 L664,346.4531 " fill="#FEFECE" filter="url(#f1)"
            style="stroke: #000000; stroke-width: 1.5;" />
            <path d="M664,346.4531 C664,356.4531 707,356.4531 707,356.4531 C707,356.4531 750,356.4531 750,346.4531 " fill="none" style="stroke: #000000; stroke-width: 1.5;" />
            <text fill="#000000" font-family="sans-serif" font-size="14" lengthAdjust="spacingAndGlyphs" textLength="66" x="674" y="369.4482">Database</text>
            <rect fill="#FEFECE" filter="url(#f1)" height="36.2969" style="stroke: #000000; stroke-width: 1.5;" width="63" x="568.75" y="189.9531" />
            <text fill="#000000" font-family="sans-serif" font-size="14" lengthAdjust="spacingAndGlyphs" textLength="43" x="578.75" y="212.9482">Admin</text>
            <rect fill="#FEFECE" filter="url(#f1)" height="36.2969" style="stroke: #000000; stroke-width: 1.5;" width="57" x="476.75" y="189.9531" />
            <text fill="#000000" font-family="sans-serif" font-size="14" lengthAdjust="spacingAndGlyphs" textLength="37" x="486.75" y="212.9482">REST</text>
            <rect fill="#FEFECE" filter="url(#f1)" height="36.2969" style="stroke: #A80036; stroke-width: 1.5;" width="132" x="484" y="338.9531" />
            <rect fill="#FEFECE" height="5" style="stroke: #A80036; stroke-width: 1.5;" width="10" x="479" y="343.9531" />
            <rect fill="#FEFECE" height="5" style="stroke: #A80036; stroke-width: 1.5;" width="10" x="479" y="365.25" />
            <text fill="#000000" font-family="sans-serif" font-size="14" lengthAdjust="spacingAndGlyphs" textLength="112" x="494" y="361.9482">config/controller</text>
            <rect fill="#FEFECE" filter="url(#f1)" height="36.2969" style="stroke: #A80036; stroke-width: 1.5;" width="49" x="399.75" y="338.9531" />
            <rect fill="#FEFECE" height="5" style="stroke: #A80036; stroke-width: 1.5;" width="10" x="394.75" y="343.9531" />
            <rect fill="#FEFECE" height="5" style="stroke: #A80036; stroke-width: 1.5;" width="10" x="394.75" y="365.25" />
            <text fill="#000000" font-family="sans-serif" font-size="14" lengthAdjust="spacingAndGlyphs" textLength="29" x="409.75" y="361.9482">logs</text>
            <rect fill="#FEFECE" filter="url(#f1)" height="36.2969" style="stroke: #000000; stroke-width: 1.5;" width="87" x="78.75" y="189.9531" />
            <text fill="#000000" font-family="sans-serif" font-size="14" lengthAdjust="spacingAndGlyphs" textLength="67" x="88.75" y="212.9482">Controller</text>
            <rect fill="#FEFECE" filter="url(#f1)" height="36.2969" style="stroke: #000000; stroke-width: 1.5;" width="72" x="201" y="189.9531" />
            <text fill="#000000" font-family="sans-serif" font-size="14" lengthAdjust="spacingAndGlyphs" textLength="52" x="211" y="212.9482">Checks</text>
            <rect fill="#FEFECE" filter="url(#f1)" height="36.2969" style="stroke: #000000; stroke-width: 1.5;" width="71" x="86.75" y="338.9531" />
            <text fill="#000000" font-family="sans-serif" font-size="14" lengthAdjust="spacingAndGlyphs" textLength="51" x="96.75" y="361.9482">Actions</text>
            <rect fill="#FEFECE" filter="url(#f1)" height="36.2969" style="stroke: #000000; stroke-width: 1.5;" width="75" x="195.75" y="338.9531" />
            <text fill="#000000" font-family="sans-serif" font-size="14" lengthAdjust="spacingAndGlyphs" textLength="55" x="205.75" y="361.9482">Analysis</text>
            <rect fill="#FEFECE" filter="url(#f1)" height="36.2969" style="stroke: #000000; stroke-width: 1.5;" width="70" x="841" y="338.9531" />
            <text fill="#000000" font-family="sans-serif" font-size="14" lengthAdjust="spacingAndGlyphs" textLength="50" x="851" y="361.9482">Service</text>
            <rect fill="#FEFECE" filter="url(#f1)" height="36.2969" style="stroke: #000000; stroke-width: 1.5;" width="48" x="955" y="338.9531" />
            <text fill="#000000" font-family="sans-serif" font-size="14" lengthAdjust="spacingAndGlyphs" textLength="28" x="965" y="361.9482">SSH</text>
            <path d="M830,457.4531 C830,447.4531 873,447.4531 873,447.4531 C873,447.4531 916,447.4531 916,457.4531 L916,478.75 C916,488.75 873,488.75 873,488.75 C873,488.75 830,488.75 830,478.75 L830,457.4531 " fill="#FEFECE" filter="url(#f1)"
            style="stroke: #000000; stroke-width: 1.5;" />
            <path d="M830,457.4531 C830,467.4531 873,467.4531 873,467.4531 C873,467.4531 916,467.4531 916,457.4531 " fill="none" style="stroke: #000000; stroke-width: 1.5;" />
            <text fill="#000000" font-family="sans-serif" font-size="14" lengthAdjust="spacingAndGlyphs" textLength="66" x="840" y="480.4482">Database</text>
            <polygon fill="#FEFECE" filter="url(#f1)" points="951.75,448.4531,988.75,448.4531,995.75,470.75,1012.75,470.75,1012.75,487.75,951.75,487.75,951.75,448.4531" style="stroke: #000000; stroke-width: 1.5;" />
            <line style="stroke: #000000; stroke-width: 1.5;" x1="951.75" x2="995.75" y1="470.75" y2="470.75" />
            <text fill="#000000" font-family="sans-serif" font-size="14" lengthAdjust="spacingAndGlyphs" textLength="31" x="955.75" y="464.4482">Files</text>
            <polygon fill="#FBFB77" filter="url(#f1)" points="782,187.9531,782,228.2188,918,228.2188,918,197.9531,908,187.9531,782,187.9531" style="stroke: #A80036; stroke-width: 1.0;" />
            <line style="stroke: #A80036; stroke-width: 1.0;" x1="908" x2="908" y1="187.9531" y2="197.9531" />
            <line style="stroke: #A80036; stroke-width: 1.0;" x1="918" x2="908" y1="197.9531" y2="197.9531" />
            <text fill="#000000" font-family="sans-serif" font-size="13" lengthAdjust="spacingAndGlyphs" textLength="115" x="788" y="205.02">Objects to inspect</text>
            <text fill="#000000" font-family="sans-serif" font-size="13" lengthAdjust="spacingAndGlyphs" textLength="78" x="788" y="220.1528">and monitor</text>
            <rect fill="#FEFECE" filter="url(#f1)" height="46.2969" style="stroke: #000000; stroke-width: 1.5;" width="76" x="1061" y="333.9531" />
            <path d="M1086.3333,334.9531 L1086.3333,338.9531 L1079.3333,345.9531 L1061,345.9531 " fill="#FEFECE" style="stroke: #000000; stroke-width: 1.5;" />
            <text fill="#000000" font-family="sans-serif" font-size="14" lengthAdjust="spacingAndGlyphs" textLength="36" x="1076" y="366.9482">Email</text>
            <polygon fill="#FBFB77" filter="url(#f1)" points="1047.75,187.9531,1047.75,228.2188,1150.75,228.2188,1150.75,197.9531,1140.75,187.9531,1047.75,187.9531" style="stroke: #A80036; stroke-width: 1.0;" />
            <polygon fill="#FBFB77" points="1047.75,187.9531,1047.75,228.2188,1095,228.2188,1099,333.8511,1103,228.2188,1150.75,228.2188,1150.75,197.9531,1140.75,187.9531,1047.75,187.9531" style="stroke: #A80036; stroke-width: 1.0;" />
            <line style="stroke: #A80036; stroke-width: 1.0;" x1="1140.75" x2="1140.75" y1="187.9531" y2="197.9531" />
            <line style="stroke: #A80036; stroke-width: 1.0;" x1="1150.75" x2="1140.75" y1="197.9531" y2="197.9531" />
            <text fill="#000000" font-family="sans-serif" font-size="13" lengthAdjust="spacingAndGlyphs" textLength="82" x="1053.75" y="205.02">Inform about</text>
            <text fill="#000000" font-family="sans-serif" font-size="13" lengthAdjust="spacingAndGlyphs" textLength="60" x="1053.75" y="220.1528">Problems</text>
            <path d="M362.804,122.2561 C355.037,134.2596 344.3533,150.7709 334.4804,166.029 C329.5439,173.6581 324.8102,180.9738 320.7452,187.2562 C319.7289,188.8268 318.7544,190.3328 317.829,191.763 C317.3663,192.4781 316.9159,193.1742 316.4787,193.85 C316.3693,194.0189 316.2609,194.1866 316.1532,194.353 "
            fill="none" style="stroke: #A80036; stroke-width: 1.0;" />
            <polygon fill="#A80036" points="316.1532,194.353,324.4007,188.9698,318.8694,190.1551,317.6841,184.6238,316.1532,194.353" style="stroke: #A80036; stroke-width: 1.0;" />
            <path d="M385.366,122.2561 C393.2505,134.2596 404.096,150.7709 414.1184,166.029 C419.1296,173.6581 423.935,180.9738 428.0616,187.2562 C429.0932,188.8268 430.0825,190.3328 431.0219,191.763 C431.4916,192.4781 431.9488,193.1742 432.3927,193.85 C432.5037,194.0189 432.6138,194.1866 432.7231,194.353 C432.7777,194.4362 432.8322,194.519 432.8864,194.6016 "
            fill="none" style="stroke: #A80036; stroke-width: 1.0;" />
            <polygon fill="#A80036" points="432.8864,194.6016,431.2886,184.8832,430.1413,190.4225,424.602,189.2752,432.8864,194.6016" style="stroke: #A80036; stroke-width: 1.0;" />
            <path d="M447.9303,249.9895 C447.9719,250.0821 448.0137,250.1745 448.0559,250.2668 C448.1401,250.4514 448.2252,250.6356 448.3114,250.8192 C451.0691,256.6951 454.8428,262.0506 460,265.9531 C475.256,277.4971 614.676,265.8351 632,273.9531 C658.311,286.2821 679.622,312.4861 692.71,331.9721 "
            fill="none" style="stroke: #A80036; stroke-width: 1.0;" />
            <polygon fill="#A80036" points="695.537,336.2691,693.9314,326.552,692.7886,332.0922,687.2484,330.9495,695.537,336.2691" style="stroke: #A80036; stroke-width: 1.0;" />
            <path d="M316.1018,214.3936 C316.1924,214.4527 316.2837,214.5123 316.3757,214.5722 C316.5596,214.6921 316.7463,214.8135 316.9357,214.9366 C317.6932,215.4286 318.494,215.9456 319.3362,216.4855 C326.0735,220.8042 335.4576,226.5848 346.5094,232.7579 C368.613,245.1041 397.3875,259.0206 425,265.9531 C447.324,271.5581 611.12,264.2681 632,273.9531 C658.359,286.1791 679.662,312.4011 692.735,331.9191 "
            fill="none" style="stroke: #A80036; stroke-width: 1.0;" />
            <polygon fill="#A80036" points="695.558,336.2241,693.9662,326.5047,692.8156,332.0433,687.277,330.8927,695.558,336.2241" style="stroke: #A80036; stroke-width: 1.0;" />
            <path d="M316.193,230.4592 C316.333,230.8266 316.4743,231.1976 316.617,231.572 C316.9022,232.3208 317.1928,233.0835 317.4883,233.8593 C318.0793,235.4108 318.6903,237.0146 319.319,238.6648 C320.5762,241.9652 321.9042,245.4509 323.2844,249.0741 C326.0449,256.3204 329.0148,264.1163 332.0478,272.078 C338.1138,288.0013 344.4323,304.5876 349.8336,318.766 C351.184,322.3107 352.477,325.7048 353.6943,328.9004 C354.303,330.4983 354.8928,332.0465 355.4614,333.5391 C355.6036,333.9122 355.7444,334.2819 355.8839,334.648 C355.9188,334.7395 355.9535,334.8308 355.9882,334.9219 "
            fill="none" style="stroke: #A80036; stroke-width: 1.0;" />
            <polygon fill="#A80036" points="355.9882,334.9219,356.5222,325.0875,354.2083,330.2495,349.0463,327.9355,355.9882,334.9219" style="stroke: #A80036; stroke-width: 1.0;" />
            <path d="M836.583,228.2041 C828.613,240.6661 819.095,257.5701 814,273.9531 C812.6831,278.1873 811.5679,282.5983 810.6247,287.0815 C810.5068,287.6418 810.3916,288.2034 810.2791,288.7658 C810.2228,289.047 810.1671,289.3285 810.1122,289.6101 "
            fill="none" style="stroke: #A80036; stroke-width: 1.0; stroke-dasharray: 7.0,7.0;" />
            <path d="M316.0901,214.4414 C316.1805,214.501 316.2717,214.5611 316.3636,214.6215 C316.5473,214.7423 316.7337,214.8648 316.9228,214.9888 C317.6794,215.4848 318.4792,216.0059 319.3203,216.5499 C326.0493,220.9019 335.4238,226.7214 346.4693,232.9199 C368.5603,245.3169 397.3355,259.2301 425,265.9531 C443.414,270.4281 750.048,263.7241 766,273.9531 C780.044,282.9591 789.3028,298.4354 795.3365,313.5331 C796.0907,315.4203 796.7945,317.3016 797.451,319.1637 C797.6152,319.6292 797.7763,320.0935 797.9346,320.5563 "
            fill="none" style="stroke: #A80036; stroke-width: 1.0;" />
            <polygon fill="#A80036" points="797.9346,320.5563,798.808,310.7463,796.3171,315.8252,791.2382,313.3343,797.9346,320.5563" style="stroke: #A80036; stroke-width: 1.0;" />
            <path d="M316.0825,214.4743 C316.1729,214.5342 316.2639,214.5946 316.3557,214.6553 C316.5393,214.7768 316.7256,214.8999 316.9145,215.0246 C317.6704,215.5233 318.4696,216.0471 319.31,216.5939 C326.0337,220.9683 335.4019,226.8139 346.4434,233.0295 C368.5263,245.4606 397.302,259.3716 425,265.9531 C457.649,273.7111 998.62,259.6981 1029,273.9531 C1053.58,285.4841 1072.77,310.2681 1084.8,329.5881 "
            fill="none" style="stroke: #A80036; stroke-width: 1.0;" />
            <polygon fill="#A80036" points="1087.4,333.8691,1086.1397,324.1012,1084.8013,329.5975,1079.3051,328.2591,1087.4,333.8691" style="stroke: #A80036; stroke-width: 1.0;" />
        </g>
    </svg>